<svg width="80" height="60" xmlns="http://www.w3.org/2000/svg" viewBox="-2 0 80 60" ><g fill="none" fill-rule="evenodd"><rect stroke="#323232" vector-effect="non-scaling-stroke" stroke-width="2" x="15" y="4" width="28" height="52" rx="4"/><path d="M46 9h10a3 3 0 0 1 3 2.9V50a3 3 0 0 1-3 2.9H46" stroke="#323232" vector-effect="non-scaling-stroke" stroke-width="2" stroke-linecap="round" stroke-linejoin="round"/><path d="M23.6 4H23h12-.6a2 2 0 0 0-1.9 1.4l-.3 1a1 1 0 0 1-1 .6h-4.5a1 1 0 0 1-1-.7l-.2-1a2 2 0 0 0-2-1.3z" stroke="#323232" vector-effect="non-scaling-stroke" stroke-width="2" fill="#323232"/><rect fill="#323232" x="26" y="52.5" width="6" height="1.5" rx=".8"/><path d="M47.8 49.5h2.5c.4 0 .7.3.7.8 0 .4-.3.7-.8.7h-2.5a.7.7 0 1 1 0-1.5z" fill="#323232"/><circle fill="#323232" cx="49" cy="12" r="1"/></g></svg>