<svg width="38" height="54" viewBox="0 0 38 54" fill="none" xmlns="http://www.w3.org/2000/svg">
<path d="M0 2H38M0 10H13M38 10H25M15 8V34M23 8V38C23 39.5913 22.3152 41.1174 21.0962 42.2426C19.8772 43.3679 18.2239 44 16.5 44C14.7761 44 13.1228 43.3679 11.9038 42.2426C10.6848 41.1174 10 39.5913 10 38M31 20V38C31 41.713 29.4723 45.274 26.753 47.8995C24.0338 50.525 20.3456 52 16.5 52C12.6544 52 8.96623 50.525 6.24695 47.8995C3.52768 45.274 2 41.713 2 38M29 18H38" stroke="#869AC1" stroke-width="4"/>
</svg>
