<svg width="38" height="51" viewBox="0 0 38 51" fill="none" xmlns="http://www.w3.org/2000/svg">
<line y1="1.5" x2="32" y2="1.5" stroke="currentColor" stroke-width="3"/>
<line x1="3" y1="8.5" x2="12" y2="8.5" stroke="currentColor" stroke-width="3"/>
<line x1="35" y1="8.5" x2="22" y2="8.5" stroke="currentColor" stroke-width="3"/>
<line x1="13.5" y1="7" x2="13.5" y2="34" stroke="currentColor" stroke-width="3"/>
<line x1="20.5" y1="7" x2="20.5" y2="37" stroke="currentColor" stroke-width="3"/>
<line x1="27.5" y1="17" x2="27.5" y2="37" stroke="currentColor" stroke-width="3"/>
<path d="M29 37C29 40.713 27.4723 44.274 24.753 46.8995C22.0338 49.525 18.3456 51 14.5 51C10.6544 51 6.96623 49.525 4.24695 46.8995C1.52768 44.274 5.80675e-07 40.713 0 37L3.0015 37C3.0015 39.9444 4.21295 42.7683 6.36933 44.8503C8.52572 46.9323 11.4504 48.102 14.5 48.102C17.5496 48.102 20.4743 46.9323 22.6307 44.8503C24.7871 42.7683 25.9985 39.9444 25.9985 37H29Z" fill="currentColor"/>
<path d="M22 37C22 38.8565 21.2098 40.637 19.8033 41.9497C18.3968 43.2625 16.4891 44 14.5 44C12.5109 44 10.6032 43.2625 9.1967 41.9497C7.79018 40.637 7 38.8565 7 37L9.9925 37C9.9925 38.1158 10.4674 39.1858 11.3127 39.9748C12.158 40.7638 13.3045 41.207 14.5 41.207C15.6955 41.207 16.842 40.7638 17.6873 39.9748C18.5326 39.1858 19.0075 38.1158 19.0075 37H22Z" fill="currentColor"/>
<line x1="22" y1="15.5" x2="38" y2="15.5" stroke="currentColor" stroke-width="3"/>
<line x1="6" y1="15.5" x2="12" y2="15.5" stroke="currentColor" stroke-width="3"/>
</svg>
